<svg width="18" height="18" viewBox="0 0 18 18" fill="none" xmlns="http://www.w3.org/2000/svg">
<path fill-rule="evenodd" clip-rule="evenodd" d="M11.2 12.6C9.78351 13.6624 8.01705 14.1485 6.25645 13.9604C4.49585 13.7723 2.87194 12.924 1.71183 11.5864C0.551715 10.2488 -0.0583901 8.52124 0.004408 6.75174C0.0672061 4.98223 0.798242 3.30227 2.05026 2.05026C3.30227 0.798242 4.98223 0.0672061 6.75174 0.004408C8.52124 -0.0583901 10.2488 0.551715 11.5864 1.71183C12.924 2.87194 13.7723 4.49585 13.9604 6.25645C14.1485 8.01705 13.6624 9.78351 12.6 11.2L18 16.6L16.6 18L11.2 12.6ZM12 7C12 8.32609 11.4732 9.59786 10.5355 10.5355C9.59786 11.4732 8.32609 12 7 12C5.67392 12 4.40215 11.4732 3.46447 10.5355C2.52679 9.59786 2 8.32609 2 7C2 5.67392 2.52679 4.40215 3.46447 3.46447C4.40215 2.52679 5.67392 2 7 2C8.32609 2 9.59786 2.52679 10.5355 3.46447C11.4732 4.40215 12 5.67392 12 7Z" fill="white"/>
</svg>
